<mxfile host="app.diagrams.net" modified="2023-11-28T21:22:24.326Z" agent="Mozilla/5.0 (Windows NT 10.0; Win64; x64) AppleWebKit/537.36 (KHTML, like Gecko) Chrome/119.0.0.0 Safari/537.36" etag="aOl5EEJeApyLC6IUPIa6" version="22.1.4" type="device">
  <diagram id="Y6qfPmDLvNnhkfI7tbyg" name="PÃ¡gina-1">
    <mxGraphModel dx="3776" dy="2420" grid="1" gridSize="10" guides="1" tooltips="1" connect="1" arrows="1" fold="1" page="0" pageScale="1" pageWidth="827" pageHeight="1169" background="none" math="0" shadow="0">
      <root>
        <mxCell id="0" />
        <mxCell id="1" parent="0" />
        <mxCell id="node3" value="&lt;p style=&quot;margin:0px;margin-top:4px;text-align:center;&quot;&gt;&lt;b&gt;Burako&lt;/b&gt;&lt;/p&gt;&lt;hr size=&quot;1&quot;/&gt;&lt;p style=&quot;margin:0 0 0 4px;line-height:1.6;&quot;&gt;+ Burako(): &lt;/p&gt;&lt;hr size=&quot;1&quot;/&gt;&lt;p style=&quot;margin:0 0 0 4px;line-height:1.6;&quot;&gt;- mazo: Mazo&lt;br/&gt;- jugadores: ArrayList&amp;lt;Jugador&amp;gt;&lt;br/&gt;- tableroEquipo2: Tablero&lt;br/&gt;- pozo: Pozo&lt;br/&gt;- mensajeSistema: String&lt;br/&gt;- tableroEquipo1: Tablero&lt;/p&gt;&lt;hr size=&quot;1&quot;/&gt;&lt;p style=&quot;margin:0 0 0 4px;line-height:1.6;&quot;&gt;+ mostrarJuegosEnMesa(int): ArrayList&amp;lt;ArrayList&amp;lt;String&amp;gt;&amp;gt;&lt;br/&gt;+ recogerFichaMazo(int): void&lt;br/&gt;+ cantidadFichasAtril(int): Integer&lt;br/&gt;+ getJugadores(): String&lt;br/&gt;+ comenzarPartida(): void&lt;br/&gt;+ enviarMensajeDelSistema(String): void&lt;br/&gt;+ recogerPozo(int): void&lt;br/&gt;+ cerrar(IObservadorRemoto, int): void&lt;br/&gt;+ nombreJugadorTurno(): String&lt;br/&gt;+ isJugadorActual(int): boolean&lt;br/&gt;+ mostrarPozo(): ArrayList&amp;lt;String&amp;gt;&lt;br/&gt;+ getMensajeSistema(): String&lt;br/&gt;+ agregarNuevaJugada(int, String[]): boolean&lt;br/&gt;+ agregarFichaJugadaExistente(int, String[], int): boolean&lt;br/&gt;- tomarMuerto(int): void&lt;br/&gt;- armarJugada(int, String[]): ArrayList&amp;lt;Ficha&amp;gt;&lt;br/&gt;+ mostrarTurno(int): String&lt;br/&gt;+ abandonarPartida(): void&lt;br/&gt;+ repartirFichas(): void&lt;br/&gt;+ cantidadJuegosMesa(int): int&lt;br/&gt;+ mostrarJugadores(): void&lt;br/&gt;+ desconectarUsuario(Jugador): void&lt;br/&gt;+ isPozoVacio(): boolean&lt;br/&gt;+ agregarFichaPozo(int, int): void&lt;br/&gt;+ setJugador(String): Jugador&lt;br/&gt;+ cambiarTurno(int): void&lt;br/&gt;+ hayJuegosMesa(int): Boolean&lt;br/&gt;+ getFichas(int): ArrayList&amp;lt;String&amp;gt;&lt;/p&gt;" style="verticalAlign=top;align=left;overflow=fill;fontSize=14;fontFamily=Helvetica;html=1;rounded=0;shadow=0;comic=0;labelBackgroundColor=none;strokeWidth=1;" parent="1" vertex="1">
          <mxGeometry x="670" y="-360" width="400" height="840" as="geometry" />
        </mxCell>
        <mxCell id="node2" value="&lt;p style=&quot;margin:0px;margin-top:4px;text-align:center;&quot;&gt;&lt;i&gt;&amp;lt;&amp;lt;enumeration&amp;gt;&amp;gt;&lt;/i&gt;&lt;br/&gt;&lt;b&gt;ColorFicha&lt;/b&gt;&lt;/p&gt;&lt;hr size=&quot;1&quot;/&gt;&lt;p style=&quot;margin:0 0 0 4px;line-height:1.6;&quot;&gt;+ ColorFicha(): &lt;/p&gt;&lt;hr size=&quot;1&quot;/&gt;&lt;p style=&quot;margin:0 0 0 4px;line-height:1.6;&quot;&gt;+ ROJO: &lt;br/&gt;+ AZUL: &lt;br/&gt;+ AMARILLO: &lt;br/&gt;+ NEGRO: &lt;/p&gt;&lt;hr size=&quot;1&quot;/&gt;&lt;p style=&quot;margin:0 0 0 4px;line-height:1.6;&quot;&gt;+ values(): ColorFicha[]&lt;br/&gt;+ valueOf(String): ColorFicha&lt;/p&gt;" style="verticalAlign=top;align=left;overflow=fill;fontSize=14;fontFamily=Helvetica;html=1;rounded=0;shadow=0;comic=0;labelBackgroundColor=none;strokeWidth=1;" parent="1" vertex="1">
          <mxGeometry x="-351" y="20" width="212" height="196" as="geometry" />
        </mxCell>
        <mxCell id="node10" value="&lt;p style=&quot;margin:0px;margin-top:4px;text-align:center;&quot;&gt;&lt;b&gt;Comodin&lt;/b&gt;&lt;/p&gt;&lt;hr size=&quot;1&quot;/&gt;&lt;p style=&quot;margin:0 0 0 4px;line-height:1.6;&quot;&gt;+ Comodin(): &lt;/p&gt;" style="verticalAlign=top;align=left;overflow=fill;fontSize=14;fontFamily=Helvetica;html=1;rounded=0;shadow=0;comic=0;labelBackgroundColor=none;strokeWidth=1;" parent="1" vertex="1">
          <mxGeometry x="810" y="1580" width="122" height="58" as="geometry" />
        </mxCell>
        <mxCell id="node8" value="&lt;p style=&quot;margin:0px;margin-top:4px;text-align:center;&quot;&gt;&lt;b&gt;Dado&lt;/b&gt;&lt;/p&gt;&lt;hr size=&quot;1&quot;/&gt;&lt;p style=&quot;margin:0 0 0 4px;line-height:1.6;&quot;&gt;+ Dado(): &lt;/p&gt;&lt;hr size=&quot;1&quot;/&gt;&lt;p style=&quot;margin:0 0 0 4px;line-height:1.6;&quot;&gt;- cara: Integer&lt;/p&gt;&lt;hr size=&quot;1&quot;/&gt;&lt;p style=&quot;margin:0 0 0 4px;line-height:1.6;&quot;&gt;+ tirarDado(): void&lt;br/&gt;+ getCara(): Integer&lt;/p&gt;" style="verticalAlign=top;align=left;overflow=fill;fontSize=14;fontFamily=Helvetica;html=1;rounded=0;shadow=0;comic=0;labelBackgroundColor=none;strokeWidth=1;" parent="1" vertex="1">
          <mxGeometry x="-351" y="290" width="155" height="137" as="geometry" />
        </mxCell>
        <mxCell id="node0" value="&lt;p style=&quot;margin:0px;margin-top:4px;text-align:center;&quot;&gt;&lt;i&gt;&amp;lt;&amp;lt;enumeration&amp;gt;&amp;gt;&lt;/i&gt;&lt;br/&gt;&lt;b&gt;Eventos&lt;/b&gt;&lt;/p&gt;&lt;hr size=&quot;1&quot;/&gt;&lt;p style=&quot;margin:0 0 0 4px;line-height:1.6;&quot;&gt;+ Eventos(): &lt;/p&gt;&lt;hr size=&quot;1&quot;/&gt;&lt;p style=&quot;margin:0 0 0 4px;line-height:1.6;&quot;&gt;+ PARTIDA: &lt;br/&gt;+ MOSTRAR_ATRIL: &lt;br/&gt;+ ABANDONAR_PARTIDA: &lt;br/&gt;+ ACTUALIZAR_POZO: &lt;br/&gt;+ CAMBIO_TURNO: &lt;br/&gt;+ MOSTRAR_JUGADORES: &lt;br/&gt;+ CAMBIO_FICHAS_ATRIL: &lt;br/&gt;+ NUEVO_MENSAJE: &lt;/p&gt;&lt;hr size=&quot;1&quot;/&gt;&lt;p style=&quot;margin:0 0 0 4px;line-height:1.6;&quot;&gt;+ values(): Eventos[]&lt;br/&gt;+ valueOf(String): Eventos&lt;/p&gt;" style="verticalAlign=top;align=left;overflow=fill;fontSize=14;fontFamily=Helvetica;html=1;rounded=0;shadow=0;comic=0;labelBackgroundColor=none;strokeWidth=1;" parent="1" vertex="1">
          <mxGeometry x="-340" y="-360" width="201" height="288" as="geometry" />
        </mxCell>
        <mxCell id="node9" value="&lt;p style=&quot;margin:0px;margin-top:4px;text-align:center;&quot;&gt;&lt;b&gt;Ficha&lt;/b&gt;&lt;/p&gt;&lt;hr size=&quot;1&quot;/&gt;&lt;p style=&quot;margin:0 0 0 4px;line-height:1.6;&quot;&gt;+ Ficha(ColorFicha, Integer): &lt;br/&gt;+ Ficha(): &lt;/p&gt;&lt;hr size=&quot;1&quot;/&gt;&lt;p style=&quot;margin:0 0 0 4px;line-height:1.6;&quot;&gt;# numeroFicha: Integer&lt;br/&gt;# valorFicha: Integer&lt;br/&gt;# color: ColorFicha&lt;/p&gt;&lt;hr size=&quot;1&quot;/&gt;&lt;p style=&quot;margin:0 0 0 4px;line-height:1.6;&quot;&gt;+ Valor(Integer): Integer&lt;br/&gt;+ getColor(): ColorFicha&lt;br/&gt;+ getValorFicha(): Integer&lt;br/&gt;+ toString(): String&lt;br/&gt;+ getNumeroFicha(): Integer&lt;/p&gt;" style="verticalAlign=top;align=left;overflow=fill;fontSize=14;fontFamily=Helvetica;html=1;rounded=0;shadow=0;comic=0;labelBackgroundColor=none;strokeWidth=1;" parent="1" vertex="1">
          <mxGeometry x="764.5" y="1237" width="211" height="265" as="geometry" />
        </mxCell>
        <mxCell id="node1" value="&lt;p style=&quot;margin:0px;margin-top:4px;text-align:center;&quot;&gt;&lt;i&gt;&amp;lt;&amp;lt;interface&amp;gt;&amp;gt;&lt;/i&gt;&lt;br/&gt;&lt;b&gt;IBurako&lt;/b&gt;&lt;/p&gt;&lt;hr size=&quot;1&quot;/&gt;&lt;p style=&quot;margin:0 0 0 4px;line-height:1.6;&quot;&gt;+ isJugadorActual(int): boolean&lt;br/&gt;+ abandonarPartida(): void&lt;br/&gt;+ cantidadFichasAtril(int): Integer&lt;br/&gt;+ comenzarPartida(): void&lt;br/&gt;+ recogerFichaMazo(int): void&lt;br/&gt;+ mostrarTurno(int): String&lt;br/&gt;+ nombreJugadorTurno(): String&lt;br/&gt;+ agregarNuevaJugada(int, String[]): boolean&lt;br/&gt;+ getJugadores(): String&lt;br/&gt;+ enviarMensajeDelSistema(String): void&lt;br/&gt;+ hayJuegosMesa(int): Boolean&lt;br/&gt;+ cantidadJuegosMesa(int): int&lt;br/&gt;+ setJugador(String): Jugador&lt;br/&gt;+ recogerPozo(int): void&lt;br/&gt;+ getMensajeSistema(): String&lt;br/&gt;+ cambiarTurno(int): void&lt;br/&gt;+ desconectarUsuario(Jugador): void&lt;br/&gt;+ cerrar(IObservadorRemoto, int): void&lt;br/&gt;+ mostrarPozo(): ArrayList&amp;lt;String&amp;gt;&lt;br/&gt;+ agregarFichaPozo(int, int): void&lt;br/&gt;+ mostrarJugadores(): void&lt;br/&gt;+ mostrarJuegosEnMesa(int): ArrayList&amp;lt;ArrayList&amp;lt;String&amp;gt;&amp;gt;&lt;br/&gt;+ isPozoVacio(): boolean&lt;br/&gt;+ repartirFichas(): void&lt;br/&gt;+ getFichas(int): ArrayList&amp;lt;String&amp;gt;&lt;br/&gt;+ agregarFichaJugadaExistente(int, String[], int): boolean&lt;/p&gt;" style="verticalAlign=top;align=left;overflow=fill;fontSize=14;fontFamily=Helvetica;html=1;rounded=0;shadow=0;comic=0;labelBackgroundColor=none;strokeWidth=1;" parent="1" vertex="1">
          <mxGeometry x="170" y="-360" width="400" height="629" as="geometry" />
        </mxCell>
        <mxCell id="node6" value="&lt;p style=&quot;margin:0px;margin-top:4px;text-align:center;&quot;&gt;&lt;i&gt;&amp;lt;&amp;lt;interface&amp;gt;&amp;gt;&lt;/i&gt;&lt;br/&gt;&lt;b&gt;ITablero&lt;/b&gt;&lt;/p&gt;&lt;hr size=&quot;1&quot;/&gt;&lt;p style=&quot;margin:0 0 0 4px;line-height:1.6;&quot;&gt;+ getJugadaEnMesa(): ArrayList&amp;lt;ArrayList&amp;lt;Ficha&amp;gt;&amp;gt;&lt;br/&gt;+ getJugadores(): ArrayList&amp;lt;Jugador&amp;gt;&lt;br/&gt;+ verificarJugadaNueva(ArrayList&amp;lt;Ficha&amp;gt;): boolean&lt;br/&gt;+ agregarJugadores(Jugador): void&lt;br/&gt;+ esEscalera(ArrayList&amp;lt;Ficha&amp;gt;): boolean&lt;br/&gt;+ verificarJugadaExistente(ArrayList&amp;lt;Ficha&amp;gt;, int): boolean&lt;br/&gt;+ setJugadaEnMesa(ArrayList&amp;lt;Ficha&amp;gt;): void&lt;br/&gt;+ esCanastaImpura(ArrayList&amp;lt;Ficha&amp;gt;): boolean&lt;br/&gt;+ sizeJugadaEnMesa(): int&lt;br/&gt;+ esPierna(ArrayList&amp;lt;Ficha&amp;gt;): boolean&lt;br/&gt;+ esCanastaPura(ArrayList&amp;lt;Ficha&amp;gt;): boolean&lt;br/&gt;+ isVacio(): boolean&lt;/p&gt;" style="verticalAlign=top;align=left;overflow=fill;fontSize=14;fontFamily=Helvetica;html=1;rounded=0;shadow=0;comic=0;labelBackgroundColor=none;strokeWidth=1;" parent="1" vertex="1">
          <mxGeometry x="-280" y="682.5" width="390" height="307" as="geometry" />
        </mxCell>
        <mxCell id="node5" value="&lt;p style=&quot;margin:0px;margin-top:4px;text-align:center;&quot;&gt;&lt;b&gt;Jugador&lt;/b&gt;&lt;/p&gt;&lt;hr size=&quot;1&quot;/&gt;&lt;p style=&quot;margin:0 0 0 4px;line-height:1.6;&quot;&gt;+ Jugador(String): &lt;/p&gt;&lt;hr size=&quot;1&quot;/&gt;&lt;p style=&quot;margin:0 0 0 4px;line-height:1.6;&quot;&gt;- ID: int&lt;br/&gt;- puntos: Integer&lt;br/&gt;- id: int&lt;br/&gt;- nombre: String&lt;br/&gt;- atril: ArrayList&amp;lt;Ficha&amp;gt;&lt;br/&gt;- turno: boolean&lt;/p&gt;&lt;hr size=&quot;1&quot;/&gt;&lt;p style=&quot;margin:0 0 0 4px;line-height:1.6;&quot;&gt;+ addFichaAtril(Ficha): void&lt;br/&gt;+ reset(): void&lt;br/&gt;+ addAtril(ArrayList&amp;lt;Ficha&amp;gt;): void&lt;br/&gt;+ getPuntos(): Integer&lt;br/&gt;+ getAtril(): ArrayList&amp;lt;Ficha&amp;gt;&lt;br/&gt;+ getId(): int&lt;br/&gt;+ isTurno(): boolean&lt;br/&gt;+ removeFichaAtril(int): Ficha&lt;br/&gt;+ equals(Object): boolean&lt;br/&gt;+ setTurno(boolean): void&lt;br/&gt;+ getNombre(): String&lt;/p&gt;" style="verticalAlign=top;align=left;overflow=fill;fontSize=14;fontFamily=Helvetica;html=1;rounded=0;shadow=0;comic=0;labelBackgroundColor=none;strokeWidth=1;" parent="1" vertex="1">
          <mxGeometry x="740" y="600" width="242" height="449" as="geometry" />
        </mxCell>
        <mxCell id="node7" value="&lt;p style=&quot;margin:0px;margin-top:4px;text-align:center;&quot;&gt;&lt;b&gt;Mazo&lt;/b&gt;&lt;/p&gt;&lt;hr size=&quot;1&quot;/&gt;&lt;p style=&quot;margin:0 0 0 4px;line-height:1.6;&quot;&gt;+ Mazo(Jugador, Jugador): &lt;br/&gt;+ Mazo(Jugador, Jugador, Jugador, Jugador): &lt;/p&gt;&lt;hr size=&quot;1&quot;/&gt;&lt;p style=&quot;margin:0 0 0 4px;line-height:1.6;&quot;&gt;- mazo: ArrayList&amp;lt;Pila&amp;gt;&lt;br/&gt;- muerto: ArrayList&amp;lt;PilaDeMuerto&amp;gt;&lt;/p&gt;&lt;hr size=&quot;1&quot;/&gt;&lt;p style=&quot;margin:0 0 0 4px;line-height:1.6;&quot;&gt;+ repartirAtril(ArrayList&amp;lt;Ficha&amp;gt;): ArrayList&amp;lt;Ficha&amp;gt;&lt;br/&gt;+ sacarMuerto(): ArrayList&amp;lt;Ficha&amp;gt;&lt;br/&gt;+ crearFichas(): ArrayList&amp;lt;Ficha&amp;gt;&lt;br/&gt;+ repartirMuerto(ArrayList&amp;lt;Ficha&amp;gt;): void&lt;br/&gt;+ repartirMazo(ArrayList&amp;lt;Ficha&amp;gt;): void&lt;br/&gt;+ getMuerto(): ArrayList&amp;lt;PilaDeMuerto&amp;gt;&lt;br/&gt;+ recogerFichaMazo(): Ficha&lt;/p&gt;" style="verticalAlign=top;align=left;overflow=fill;fontSize=14;fontFamily=Helvetica;html=1;rounded=0;shadow=0;comic=0;labelBackgroundColor=none;strokeWidth=1;" parent="1" vertex="1">
          <mxGeometry x="1090" y="600" width="341" height="288" as="geometry" />
        </mxCell>
        <mxCell id="node13" value="&lt;p style=&quot;margin:0px;margin-top:4px;text-align:center;&quot;&gt;&lt;b&gt;Pila&lt;/b&gt;&lt;/p&gt;&lt;hr size=&quot;1&quot;/&gt;&lt;p style=&quot;margin:0 0 0 4px;line-height:1.6;&quot;&gt;+ Pila(): &lt;/p&gt;&lt;hr size=&quot;1&quot;/&gt;&lt;p style=&quot;margin:0 0 0 4px;line-height:1.6;&quot;&gt;# pila: ArrayList&amp;lt;Ficha&amp;gt;&lt;/p&gt;&lt;hr size=&quot;1&quot;/&gt;&lt;p style=&quot;margin:0 0 0 4px;line-height:1.6;&quot;&gt;+ agregarFicha(Ficha): void&lt;br/&gt;+ isEmpty(): boolean&lt;br/&gt;+ sacarFicha(): Ficha&lt;/p&gt;" style="verticalAlign=top;align=left;overflow=fill;fontSize=14;fontFamily=Helvetica;html=1;rounded=0;shadow=0;comic=0;labelBackgroundColor=none;strokeWidth=1;" parent="1" vertex="1">
          <mxGeometry x="1535" y="1030" width="202" height="150" as="geometry" />
        </mxCell>
        <mxCell id="node11" value="&lt;p style=&quot;margin:0px;margin-top:4px;text-align:center;&quot;&gt;&lt;b&gt;PilaDeMuerto&lt;/b&gt;&lt;/p&gt;&lt;hr size=&quot;1&quot;/&gt;&lt;p style=&quot;margin:0 0 0 4px;line-height:1.6;&quot;&gt;+ PilaDeMuerto(): &lt;/p&gt;&lt;hr size=&quot;1&quot;/&gt;&lt;p style=&quot;margin:0 0 0 4px;line-height:1.6;&quot;&gt;+ getPilaDeMuerto(): ArrayList&amp;lt;Ficha&amp;gt;&lt;/p&gt;" style="verticalAlign=top;align=left;overflow=fill;fontSize=14;fontFamily=Helvetica;html=1;rounded=0;shadow=0;comic=0;labelBackgroundColor=none;strokeWidth=1;" parent="1" vertex="1">
          <mxGeometry x="1501" y="1340" width="270" height="100" as="geometry" />
        </mxCell>
        <mxCell id="node4" value="&lt;p style=&quot;margin:0px;margin-top:4px;text-align:center;&quot;&gt;&lt;b&gt;Pozo&lt;/b&gt;&lt;/p&gt;&lt;hr size=&quot;1&quot;/&gt;&lt;p style=&quot;margin:0 0 0 4px;line-height:1.6;&quot;&gt;+ Pozo(): &lt;/p&gt;&lt;hr size=&quot;1&quot;/&gt;&lt;p style=&quot;margin:0 0 0 4px;line-height:1.6;&quot;&gt;# pozo: ArrayList&amp;lt;Ficha&amp;gt;&lt;/p&gt;&lt;hr size=&quot;1&quot;/&gt;&lt;p style=&quot;margin:0 0 0 4px;line-height:1.6;&quot;&gt;+ recogerPozo(): ArrayList&amp;lt;Ficha&amp;gt;&lt;br/&gt;+ mostrarPozo(): ArrayList&amp;lt;String&amp;gt;&lt;br/&gt;+ agregarAlPozo(Ficha): void&lt;br/&gt;+ isEmpty(): boolean&lt;/p&gt;" style="verticalAlign=top;align=left;overflow=fill;fontSize=14;fontFamily=Helvetica;html=1;rounded=0;shadow=0;comic=0;labelBackgroundColor=none;strokeWidth=1;" parent="1" vertex="1">
          <mxGeometry x="1511" y="600" width="250" height="173" as="geometry" />
        </mxCell>
        <mxCell id="node12" value="&lt;p style=&quot;margin:0px;margin-top:4px;text-align:center;&quot;&gt;&lt;b&gt;Tablero&lt;/b&gt;&lt;/p&gt;&lt;hr size=&quot;1&quot;/&gt;&lt;p style=&quot;margin:0 0 0 4px;line-height:1.6;&quot;&gt;+ Tablero(): &lt;/p&gt;&lt;hr size=&quot;1&quot;/&gt;&lt;p style=&quot;margin:0 0 0 4px;line-height:1.6;&quot;&gt;# jugadaEnMesa: ArrayList&amp;lt;ArrayList&amp;lt;Ficha&amp;gt;&amp;gt;&lt;br/&gt;- jugadores: ArrayList&amp;lt;Jugador&amp;gt;&lt;/p&gt;&lt;hr size=&quot;1&quot;/&gt;&lt;p style=&quot;margin:0 0 0 4px;line-height:1.6;&quot;&gt;+ agregarJugadores(Jugador): void&lt;br/&gt;- cantidadComodines(ArrayList&amp;lt;Ficha&amp;gt;): int&lt;br/&gt;+ esCanastaPura(ArrayList&amp;lt;Ficha&amp;gt;): boolean&lt;br/&gt;+ setJugadaEnMesa(ArrayList&amp;lt;Ficha&amp;gt;): void&lt;br/&gt;+ esEscalera(ArrayList&amp;lt;Ficha&amp;gt;): boolean&lt;br/&gt;+ getJugadaEnMesa(): ArrayList&amp;lt;ArrayList&amp;lt;Ficha&amp;gt;&amp;gt;&lt;br/&gt;+ getJugadores(): ArrayList&amp;lt;Jugador&amp;gt;&lt;br/&gt;+ verificarJugadaExistente(ArrayList&amp;lt;Ficha&amp;gt;, int): boolean&lt;br/&gt;+ sizeJugadaEnMesa(): int&lt;br/&gt;+ esPierna(ArrayList&amp;lt;Ficha&amp;gt;): boolean&lt;br/&gt;+ isVacio(): boolean&lt;br/&gt;+ verificarJugadaNueva(ArrayList&amp;lt;Ficha&amp;gt;): boolean&lt;br/&gt;- contieneComodin(ArrayList&amp;lt;Ficha&amp;gt;): boolean&lt;br/&gt;+ esCanastaImpura(ArrayList&amp;lt;Ficha&amp;gt;): boolean&lt;br/&gt;- puntos(ArrayList&amp;lt;Ficha&amp;gt;): int&lt;br/&gt;+ mostrarJuegosEnMesa(): ArrayList&amp;lt;ArrayList&amp;lt;String&amp;gt;&amp;gt;&lt;/p&gt;" style="verticalAlign=top;align=left;overflow=fill;fontSize=14;fontFamily=Helvetica;html=1;rounded=0;shadow=0;comic=0;labelBackgroundColor=none;strokeWidth=1;" parent="1" vertex="1">
          <mxGeometry x="270" y="600" width="390" height="472" as="geometry" />
        </mxCell>
        <mxCell id="iC3_kMv_2HpdgsYj5oue-4" value="" style="endArrow=block;dashed=1;endFill=0;endSize=12;html=1;rounded=0;" parent="1" source="node3" target="node1" edge="1">
          <mxGeometry width="160" relative="1" as="geometry">
            <mxPoint x="280" y="300" as="sourcePoint" />
            <mxPoint x="440" y="300" as="targetPoint" />
          </mxGeometry>
        </mxCell>
        <mxCell id="iC3_kMv_2HpdgsYj5oue-5" value="2" style="endArrow=block;endFill=1;html=1;edgeStyle=orthogonalEdgeStyle;align=left;verticalAlign=top;rounded=0;entryX=0.5;entryY=0;entryDx=0;entryDy=0;" parent="1" source="node3" target="node5" edge="1">
          <mxGeometry x="-0.3516" y="-251" relative="1" as="geometry">
            <mxPoint x="550" y="670" as="sourcePoint" />
            <mxPoint x="710" y="670" as="targetPoint" />
            <mxPoint x="-244" y="-192" as="offset" />
            <Array as="points">
              <mxPoint x="870" y="600" />
            </Array>
          </mxGeometry>
        </mxCell>
        <mxCell id="iC3_kMv_2HpdgsYj5oue-6" value="1" style="edgeLabel;resizable=0;html=1;align=left;verticalAlign=bottom;" parent="iC3_kMv_2HpdgsYj5oue-5" connectable="0" vertex="1">
          <mxGeometry x="-1" relative="1" as="geometry" />
        </mxCell>
        <mxCell id="iC3_kMv_2HpdgsYj5oue-7" value="*" style="endArrow=block;endFill=1;html=1;edgeStyle=orthogonalEdgeStyle;align=left;verticalAlign=top;rounded=0;" parent="1" source="node3" target="node12" edge="1">
          <mxGeometry x="-0.5562" y="140" relative="1" as="geometry">
            <mxPoint x="550" y="690" as="sourcePoint" />
            <mxPoint x="710" y="690" as="targetPoint" />
            <mxPoint x="116" y="-61" as="offset" />
            <Array as="points">
              <mxPoint x="465" y="360" />
            </Array>
          </mxGeometry>
        </mxCell>
        <mxCell id="iC3_kMv_2HpdgsYj5oue-8" value="1" style="edgeLabel;resizable=0;html=1;align=left;verticalAlign=bottom;" parent="iC3_kMv_2HpdgsYj5oue-7" connectable="0" vertex="1">
          <mxGeometry x="-1" relative="1" as="geometry" />
        </mxCell>
        <mxCell id="iC3_kMv_2HpdgsYj5oue-9" value="name" style="endArrow=block;endFill=1;html=1;edgeStyle=orthogonalEdgeStyle;align=left;verticalAlign=top;rounded=0;exitX=1.008;exitY=0.846;exitDx=0;exitDy=0;exitPerimeter=0;" parent="1" source="node3" target="node7" edge="1">
          <mxGeometry x="-1" relative="1" as="geometry">
            <mxPoint x="570" y="730" as="sourcePoint" />
            <mxPoint x="730" y="730" as="targetPoint" />
          </mxGeometry>
        </mxCell>
        <mxCell id="iC3_kMv_2HpdgsYj5oue-10" value="1" style="edgeLabel;resizable=0;html=1;align=left;verticalAlign=bottom;" parent="iC3_kMv_2HpdgsYj5oue-9" connectable="0" vertex="1">
          <mxGeometry x="-1" relative="1" as="geometry" />
        </mxCell>
        <mxCell id="iC3_kMv_2HpdgsYj5oue-11" value="" style="endArrow=block;dashed=1;endFill=0;endSize=12;html=1;rounded=0;" parent="1" source="node12" target="node6" edge="1">
          <mxGeometry width="160" relative="1" as="geometry">
            <mxPoint x="570" y="730" as="sourcePoint" />
            <mxPoint x="730" y="730" as="targetPoint" />
          </mxGeometry>
        </mxCell>
        <mxCell id="iC3_kMv_2HpdgsYj5oue-12" value="name" style="endArrow=block;endFill=1;html=1;edgeStyle=orthogonalEdgeStyle;align=left;verticalAlign=top;rounded=0;" parent="1" source="node3" target="node4" edge="1">
          <mxGeometry x="-1" relative="1" as="geometry">
            <mxPoint x="570" y="570" as="sourcePoint" />
            <mxPoint x="730" y="570" as="targetPoint" />
          </mxGeometry>
        </mxCell>
        <mxCell id="iC3_kMv_2HpdgsYj5oue-13" value="1" style="edgeLabel;resizable=0;html=1;align=left;verticalAlign=bottom;" parent="iC3_kMv_2HpdgsYj5oue-12" connectable="0" vertex="1">
          <mxGeometry x="-1" relative="1" as="geometry" />
        </mxCell>
        <mxCell id="iC3_kMv_2HpdgsYj5oue-19" value="name" style="endArrow=block;endFill=1;html=1;edgeStyle=orthogonalEdgeStyle;align=left;verticalAlign=top;rounded=0;entryX=0.41;entryY=-0.004;entryDx=0;entryDy=0;entryPerimeter=0;exitX=1;exitY=0.75;exitDx=0;exitDy=0;" parent="1" source="node5" target="node9" edge="1">
          <mxGeometry x="-1" relative="1" as="geometry">
            <mxPoint x="1710" y="1270" as="sourcePoint" />
            <mxPoint x="1870" y="1270" as="targetPoint" />
          </mxGeometry>
        </mxCell>
        <mxCell id="iC3_kMv_2HpdgsYj5oue-20" value="1" style="edgeLabel;resizable=0;html=1;align=left;verticalAlign=bottom;" parent="iC3_kMv_2HpdgsYj5oue-19" connectable="0" vertex="1">
          <mxGeometry x="-1" relative="1" as="geometry" />
        </mxCell>
        <mxCell id="iC3_kMv_2HpdgsYj5oue-21" value="name" style="endArrow=block;endFill=1;html=1;edgeStyle=orthogonalEdgeStyle;align=left;verticalAlign=top;rounded=0;exitX=0.435;exitY=1.003;exitDx=0;exitDy=0;exitPerimeter=0;entryX=0.25;entryY=0;entryDx=0;entryDy=0;" parent="1" source="node12" target="node9" edge="1">
          <mxGeometry x="-1" relative="1" as="geometry">
            <mxPoint x="1730" y="1460" as="sourcePoint" />
            <mxPoint x="1890" y="1460" as="targetPoint" />
          </mxGeometry>
        </mxCell>
        <mxCell id="iC3_kMv_2HpdgsYj5oue-22" value="1" style="edgeLabel;resizable=0;html=1;align=left;verticalAlign=bottom;" parent="iC3_kMv_2HpdgsYj5oue-21" connectable="0" vertex="1">
          <mxGeometry x="-1" relative="1" as="geometry" />
        </mxCell>
        <mxCell id="iC3_kMv_2HpdgsYj5oue-23" value="name" style="endArrow=block;endFill=1;html=1;edgeStyle=orthogonalEdgeStyle;align=left;verticalAlign=top;rounded=0;exitX=1;exitY=0.75;exitDx=0;exitDy=0;entryX=1;entryY=0.75;entryDx=0;entryDy=0;" parent="1" source="node4" target="node9" edge="1">
          <mxGeometry x="-1" relative="1" as="geometry">
            <mxPoint x="1870" y="1610" as="sourcePoint" />
            <mxPoint x="2030" y="1610" as="targetPoint" />
            <Array as="points">
              <mxPoint x="1860" y="730" />
              <mxPoint x="1860" y="1570" />
              <mxPoint x="1060" y="1570" />
              <mxPoint x="1060" y="1436" />
            </Array>
          </mxGeometry>
        </mxCell>
        <mxCell id="iC3_kMv_2HpdgsYj5oue-24" value="1" style="edgeLabel;resizable=0;html=1;align=left;verticalAlign=bottom;" parent="iC3_kMv_2HpdgsYj5oue-23" connectable="0" vertex="1">
          <mxGeometry x="-1" relative="1" as="geometry" />
        </mxCell>
        <mxCell id="iC3_kMv_2HpdgsYj5oue-27" value="Extends" style="endArrow=block;endSize=16;endFill=0;html=1;rounded=0;entryX=0.5;entryY=1;entryDx=0;entryDy=0;" parent="1" source="node10" target="node9" edge="1">
          <mxGeometry width="160" relative="1" as="geometry">
            <mxPoint x="1060" y="1630" as="sourcePoint" />
            <mxPoint x="1220" y="1630" as="targetPoint" />
          </mxGeometry>
        </mxCell>
        <mxCell id="iC3_kMv_2HpdgsYj5oue-28" value="Extends" style="endArrow=block;endSize=16;endFill=0;html=1;rounded=0;exitX=0.5;exitY=0;exitDx=0;exitDy=0;" parent="1" source="node11" target="node13" edge="1">
          <mxGeometry width="160" relative="1" as="geometry">
            <mxPoint x="330" y="1720" as="sourcePoint" />
            <mxPoint x="666" y="1803" as="targetPoint" />
          </mxGeometry>
        </mxCell>
        <mxCell id="iC3_kMv_2HpdgsYj5oue-29" value="name" style="endArrow=block;endFill=1;html=1;edgeStyle=orthogonalEdgeStyle;align=left;verticalAlign=top;rounded=0;entryX=0.5;entryY=0;entryDx=0;entryDy=0;" parent="1" source="node7" target="node13" edge="1">
          <mxGeometry x="-1" relative="1" as="geometry">
            <mxPoint x="1030" y="1840" as="sourcePoint" />
            <mxPoint x="1190" y="1840" as="targetPoint" />
          </mxGeometry>
        </mxCell>
        <mxCell id="iC3_kMv_2HpdgsYj5oue-30" value="1" style="edgeLabel;resizable=0;html=1;align=left;verticalAlign=bottom;" parent="iC3_kMv_2HpdgsYj5oue-29" connectable="0" vertex="1">
          <mxGeometry x="-1" relative="1" as="geometry" />
        </mxCell>
        <mxCell id="iC3_kMv_2HpdgsYj5oue-31" value="name" style="endArrow=block;endFill=1;html=1;edgeStyle=orthogonalEdgeStyle;align=left;verticalAlign=top;rounded=0;exitX=-0.013;exitY=0.665;exitDx=0;exitDy=0;entryX=0.994;entryY=0.307;entryDx=0;entryDy=0;entryPerimeter=0;exitPerimeter=0;" parent="1" source="node13" target="node9" edge="1">
          <mxGeometry x="-1" relative="1" as="geometry">
            <mxPoint x="1140" y="1860" as="sourcePoint" />
            <mxPoint x="640" y="1430" as="targetPoint" />
            <Array as="points">
              <mxPoint x="1532" y="1105" />
              <mxPoint x="1440" y="1105" />
              <mxPoint x="1440" y="1208" />
              <mxPoint x="1070" y="1208" />
              <mxPoint x="1070" y="1395" />
              <mxPoint x="974" y="1395" />
            </Array>
          </mxGeometry>
        </mxCell>
        <mxCell id="iC3_kMv_2HpdgsYj5oue-32" value="1" style="edgeLabel;resizable=0;html=1;align=left;verticalAlign=bottom;" parent="iC3_kMv_2HpdgsYj5oue-31" connectable="0" vertex="1">
          <mxGeometry x="-1" relative="1" as="geometry" />
        </mxCell>
      </root>
    </mxGraphModel>
  </diagram>
</mxfile>
